<svg xmlns="http://www.w3.org/2000/svg" xmlns:xlink="http://www.w3.org/1999/xlink" width="500" zoomAndPan="magnify" viewBox="0 0 375 112.499997" height="150" preserveAspectRatio="xMidYMid meet" version="1.0"><defs><g/><clipPath id="277072b6cb"><path d="M 32 0 L 339 0 L 339 112.003906 L 32 112.003906 Z M 32 0 " clip-rule="nonzero"/></clipPath><clipPath id="4ee3cada98"><path d="M 83.003906 44 L 306.6875 44 L 306.6875 66 L 83.003906 66 Z M 83.003906 44 " clip-rule="nonzero"/></clipPath><clipPath id="72d3957d98"><path d="M 0.371094 0 L 88 0 L 88 112.003906 L 0.371094 112.003906 Z M 0.371094 0 " clip-rule="nonzero"/></clipPath><clipPath id="8cc7dd3d0d"><path d="M 0.371094 11 L 45 11 L 45 84 L 0.371094 84 Z M 0.371094 11 " clip-rule="nonzero"/></clipPath><clipPath id="750e0fe273"><rect x="0" width="88" y="0" height="113"/></clipPath><clipPath id="8f990b59f5"><rect x="0" width="307" y="0" height="113"/></clipPath><clipPath id="d88154bd4e"><path d="M 280.53125 33.621094 L 314.878906 33.621094 L 314.878906 53 L 280.53125 53 Z M 280.53125 33.621094 " clip-rule="nonzero"/></clipPath></defs><g clip-path="url(#277072b6cb)"><g transform="matrix(1, 0, 0, 1, 32, 0)"><g clip-path="url(#8f990b59f5)"><g clip-path="url(#4ee3cada98)"><path fill="#662d13" d="M 84.476562 57.070312 C 83.855469 58.03125 83.019531 57.273438 83.554688 56.433594 C 103.257812 25.449219 115.617188 67.480469 155.226562 63.949219 C 216.214844 58.519531 267.195312 41.179688 305.140625 56.109375 C 307.785156 57.148438 305.921875 59.332031 303.691406 58.3125 C 272.109375 43.863281 213.445312 58.992188 154.960938 65.121094 C 115.335938 69.273438 104.132812 26.597656 84.476562 57.070312 Z M 84.476562 57.070312 " fill-opacity="1" fill-rule="nonzero"/></g><g clip-path="url(#72d3957d98)"><g transform="matrix(1, 0, 0, 1, 0.000000000000007105, 0)"><g clip-path="url(#750e0fe273)"><g clip-path="url(#8cc7dd3d0d)"><g fill="#662d13" fill-opacity="1"><g transform="translate(3.23838, 72.089331)"><g><path d="M 10.671875 -11.59375 C 11.992188 -12.875 13.425781 -14.25 14.96875 -15.71875 C 16.507812 -17.1875 17.882812 -18.609375 19.09375 -19.984375 C 20.3125 -21.359375 21.097656 -22.546875 21.453125 -23.546875 C 21.804688 -24.546875 21.460938 -25.210938 20.421875 -25.546875 C 19.804688 -25.734375 19.019531 -25.613281 18.0625 -25.1875 C 17.113281 -24.757812 15.953125 -23.84375 14.578125 -22.4375 C 13.203125 -21.039062 11.566406 -19.003906 9.671875 -16.328125 C 7.773438 -13.648438 5.546875 -10.128906 2.984375 -5.765625 L 1.703125 5.328125 C 1.609375 6.285156 1.191406 6.90625 0.453125 7.1875 C -0.273438 7.46875 -0.984375 7.429688 -1.671875 7.078125 C -2.359375 6.722656 -2.675781 6.140625 -2.625 5.328125 C -2.34375 2.773438 -2.035156 -0.300781 -1.703125 -3.90625 C -1.367188 -7.507812 -0.960938 -11.375 -0.484375 -15.5 C -0.015625 -19.632812 0.546875 -23.820312 1.203125 -28.0625 C 1.867188 -32.3125 2.6875 -36.367188 3.65625 -40.234375 C 4.632812 -44.097656 5.773438 -47.570312 7.078125 -50.65625 C 8.378906 -53.738281 9.882812 -56.191406 11.59375 -58.015625 C 13.300781 -59.835938 15.269531 -60.796875 17.5 -60.890625 C 18.925781 -60.941406 20.132812 -60.394531 21.125 -59.25 C 22.125 -58.113281 22.691406 -56.421875 22.828125 -54.171875 C 22.972656 -51.921875 22.507812 -49.132812 21.4375 -45.8125 C 20.375 -42.488281 18.515625 -38.671875 15.859375 -34.359375 C 13.203125 -30.046875 9.550781 -25.28125 4.90625 -20.0625 C 4.664062 -18.5 4.40625 -16.601562 4.125 -14.375 C 3.84375 -12.144531 3.554688 -10.007812 3.265625 -7.96875 C 5.828125 -12.28125 8.1875 -15.914062 10.34375 -18.875 C 12.507812 -21.84375 14.503906 -23.988281 16.328125 -25.3125 C 18.148438 -26.644531 19.820312 -26.957031 21.34375 -26.25 C 22.195312 -25.820312 22.765625 -25.050781 23.046875 -23.9375 C 23.328125 -22.820312 23.3125 -21.578125 23 -20.203125 C 22.695312 -18.828125 22.109375 -17.472656 21.234375 -16.140625 C 20.359375 -14.816406 19.195312 -13.703125 17.75 -12.796875 C 16.300781 -11.898438 14.535156 -11.378906 12.453125 -11.234375 L 18.78125 -7.828125 C 19.257812 -7.640625 19.472656 -7.082031 19.421875 -6.15625 C 19.367188 -5.226562 19.175781 -4.085938 18.84375 -2.734375 C 18.519531 -1.390625 18.164062 0.015625 17.78125 1.484375 C 17.40625 2.960938 17.117188 4.34375 16.921875 5.625 C 16.734375 6.90625 16.757812 7.972656 17 8.828125 C 17.238281 9.679688 17.804688 10.128906 18.703125 10.171875 C 19.941406 10.222656 21.546875 9.109375 23.515625 6.828125 C 25.484375 4.554688 27.828125 1.394531 30.546875 -2.65625 C 33.273438 -6.71875 36.347656 -11.40625 39.765625 -16.71875 C 40.191406 -17.09375 40.570312 -17.234375 40.90625 -17.140625 C 41.238281 -17.046875 41.3125 -16.878906 41.125 -16.640625 C 37.414062 -11.003906 34.1875 -6.070312 31.4375 -1.84375 C 28.6875 2.375 26.28125 5.617188 24.21875 7.890625 C 22.15625 10.171875 20.25 11.238281 18.5 11.09375 C 16.976562 11.050781 15.78125 10.566406 14.90625 9.640625 C 14.03125 8.710938 13.425781 7.515625 13.09375 6.046875 C 12.757812 4.578125 12.6875 3.007812 12.875 1.34375 C 13.0625 -0.3125 13.460938 -1.929688 14.078125 -3.515625 C 14.703125 -5.109375 15.507812 -6.472656 16.5 -7.609375 C 16.5 -7.609375 16.175781 -7.785156 15.53125 -8.140625 C 14.894531 -8.492188 14.160156 -8.910156 13.328125 -9.390625 C 12.503906 -9.867188 11.816406 -10.316406 11.265625 -10.734375 C 10.722656 -11.160156 10.523438 -11.445312 10.671875 -11.59375 Z M 5.125 -21.90625 C 9.394531 -26.976562 12.75 -31.566406 15.1875 -35.671875 C 17.632812 -39.773438 19.351562 -43.351562 20.34375 -46.40625 C 21.34375 -49.46875 21.78125 -52.007812 21.65625 -54.03125 C 21.539062 -56.050781 21.066406 -57.546875 20.234375 -58.515625 C 19.410156 -59.484375 18.378906 -59.921875 17.140625 -59.828125 C 16.191406 -59.785156 15.242188 -58.992188 14.296875 -57.453125 C 13.347656 -55.910156 12.410156 -53.859375 11.484375 -51.296875 C 10.566406 -48.734375 9.691406 -45.828125 8.859375 -42.578125 C 8.023438 -39.328125 7.285156 -35.9375 6.640625 -32.40625 C 6.003906 -28.875 5.5 -25.375 5.125 -21.90625 Z M 5.125 -21.90625 "/></g></g></g></g><g fill="#662d13" fill-opacity="1"><g transform="translate(42.928451, 72.089331)"><g><path d="M 5.046875 -21.765625 C 4.859375 -20.253906 4.691406 -18.914062 4.546875 -17.75 C 4.410156 -16.582031 4.25 -15.410156 4.0625 -14.234375 C 6.144531 -19.546875 8.273438 -23.660156 10.453125 -26.578125 C 12.640625 -29.492188 14.679688 -31.363281 16.578125 -32.1875 C 18.472656 -33.019531 20.015625 -32.960938 21.203125 -32.015625 C 22.578125 -30.921875 23.460938 -29.363281 23.859375 -27.34375 C 24.265625 -25.332031 24.347656 -23.09375 24.109375 -20.625 C 23.878906 -18.164062 23.503906 -15.65625 22.984375 -13.09375 C 22.460938 -10.53125 21.9375 -8.109375 21.40625 -5.828125 C 20.882812 -3.554688 20.539062 -1.625 20.375 -0.03125 C 20.207031 1.550781 20.375 2.613281 20.875 3.15625 C 21.375 3.707031 22.382812 3.53125 23.90625 2.625 C 25.46875 1.675781 27.113281 0.328125 28.84375 -1.421875 C 30.570312 -3.179688 32.242188 -5.054688 33.859375 -7.046875 C 35.472656 -9.035156 36.941406 -10.90625 38.265625 -12.65625 C 39.597656 -14.414062 40.644531 -15.796875 41.40625 -16.796875 C 41.550781 -16.929688 41.785156 -17 42.109375 -17 C 42.441406 -17 42.609375 -16.90625 42.609375 -16.71875 C 41.617188 -15.4375 40.457031 -13.914062 39.125 -12.15625 C 37.800781 -10.40625 36.367188 -8.59375 34.828125 -6.71875 C 33.285156 -4.84375 31.695312 -3.050781 30.0625 -1.34375 C 28.425781 0.351562 26.800781 1.796875 25.1875 2.984375 C 23.945312 3.890625 22.984375 4.390625 22.296875 4.484375 C 21.609375 4.578125 20.789062 4.382812 19.84375 3.90625 C 18.894531 3.4375 18.28125 2.488281 18 1.0625 C 17.71875 -0.351562 17.632812 -2.054688 17.75 -4.046875 C 17.863281 -6.046875 18.109375 -8.191406 18.484375 -10.484375 C 18.867188 -12.785156 19.285156 -15.070312 19.734375 -17.34375 C 20.191406 -19.625 20.5625 -21.738281 20.84375 -23.6875 C 21.125 -25.632812 21.265625 -27.269531 21.265625 -28.59375 C 21.265625 -29.925781 21.003906 -30.78125 20.484375 -31.15625 C 19.253906 -32.0625 17.59375 -31.765625 15.5 -30.265625 C 13.414062 -28.773438 11.25 -26.109375 9 -22.265625 C 6.75 -18.421875 4.695312 -13.394531 2.84375 -7.1875 L 1.5 0 C 1.164062 1.039062 0.6875 1.628906 0.0625 1.765625 C -0.550781 1.910156 -1.082031 1.769531 -1.53125 1.34375 C -1.976562 0.925781 -2.179688 0.429688 -2.140625 -0.140625 C -1.898438 -1.941406 -1.71875 -3.375 -1.59375 -4.4375 C -1.476562 -5.507812 -1.375 -6.457031 -1.28125 -7.28125 C -1.1875 -8.113281 -1.078125 -9.015625 -0.953125 -9.984375 C -0.835938 -10.960938 -0.671875 -12.222656 -0.453125 -13.765625 C -0.242188 -15.304688 0.0703125 -17.359375 0.5 -19.921875 C 0.738281 -20.867188 1.25 -21.648438 2.03125 -22.265625 C 2.8125 -22.878906 3.53125 -23.1875 4.1875 -23.1875 C 4.851562 -23.1875 5.140625 -22.710938 5.046875 -21.765625 Z M 5.046875 -21.765625 "/></g></g></g></g></g></g></g></g></g><path fill="#662d13" d="M 293.65625 41.011719 C 292.769531 41.011719 292.050781 41.730469 292.050781 42.613281 C 292.050781 43.5 292.769531 44.21875 293.65625 44.21875 C 294.542969 44.21875 295.257812 43.5 295.257812 42.613281 C 295.257812 41.730469 294.542969 41.011719 293.65625 41.011719 Z M 293.046875 42.144531 C 292.867188 42.144531 292.722656 41.996094 292.722656 41.820312 C 292.722656 41.640625 292.867188 41.496094 293.046875 41.496094 C 293.226562 41.496094 293.371094 41.640625 293.371094 41.820312 C 293.371094 41.996094 293.226562 42.144531 293.046875 42.144531 Z M 293.046875 42.144531 " fill-opacity="1" fill-rule="nonzero"/><path fill="#662d13" d="M 302.597656 41.648438 C 301.710938 41.648438 300.996094 42.363281 300.996094 43.25 C 300.996094 44.136719 301.710938 44.855469 302.597656 44.855469 C 303.484375 44.855469 304.203125 44.136719 304.203125 43.25 C 304.203125 42.363281 303.484375 41.648438 302.597656 41.648438 Z M 301.992188 42.777344 C 301.8125 42.777344 301.667969 42.632812 301.667969 42.453125 C 301.667969 42.277344 301.8125 42.132812 301.992188 42.132812 C 302.171875 42.132812 302.316406 42.277344 302.316406 42.453125 C 302.316406 42.632812 302.171875 42.777344 301.992188 42.777344 Z M 301.992188 42.777344 " fill-opacity="1" fill-rule="nonzero"/><g clip-path="url(#d88154bd4e)"><path fill="#662d13" d="M 313.421875 48.773438 C 312.703125 48.433594 311.949219 48.273438 311.175781 48.304688 C 310.613281 48.328125 310.046875 48.453125 309.503906 48.671875 C 309.4375 48.695312 309.375 48.722656 309.316406 48.753906 C 309.316406 48.753906 309.386719 48.230469 309.332031 47.359375 C 310.621094 47.554688 311.902344 47.820312 313.171875 48.109375 C 312.117188 47.714844 310.730469 47.328125 309.3125 47.097656 C 309.285156 46.769531 309.238281 46.402344 309.164062 46 C 310.890625 45.929688 312.621094 45.996094 314.34375 46.09375 C 312.832031 45.816406 310.949219 45.664062 309.117188 45.746094 C 309.046875 45.398438 308.953125 45.03125 308.839844 44.644531 C 309.386719 44.53125 309.945312 44.453125 310.5 44.382812 C 312.003906 44.199219 313.523438 44.132812 315.039062 44.09375 C 313.308594 43.898438 310.816406 43.929688 308.773438 44.429688 C 308.546875 43.722656 308.238281 42.964844 307.816406 42.183594 C 307.816406 42.183594 308.269531 37.175781 307.953125 35.738281 C 307.953125 35.738281 307.863281 34.746094 307.460938 34.746094 C 307.054688 34.746094 305.148438 35.710938 302.316406 38.546875 C 302.316406 38.546875 298.097656 37.53125 294.203125 38.179688 C 294.203125 38.179688 291.945312 35.316406 290.253906 34.246094 C 290.253906 34.246094 289.394531 33.621094 289.183594 34.3125 C 288.992188 34.933594 288.179688 37.214844 288.3125 41.578125 C 288.3125 41.578125 287.8125 42.195312 287.300781 43.335938 C 285.570312 42.5625 283.546875 42.058594 282.046875 41.859375 C 283.785156 42.347656 285.535156 42.851562 287.199219 43.566406 C 287.054688 43.910156 286.910156 44.300781 286.777344 44.726562 C 284.695312 44.175781 282.371094 43.953125 280.546875 43.988281 C 282.613281 44.207031 284.6875 44.46875 286.707031 44.964844 C 286.578125 45.410156 286.46875 45.898438 286.382812 46.425781 C 284.679688 46.34375 282.894531 46.515625 281.574219 46.78125 C 283.160156 46.691406 284.757812 46.609375 286.347656 46.679688 C 286.253906 47.351562 286.207031 48.078125 286.226562 48.859375 C 286.175781 48.828125 286.125 48.800781 286.070312 48.773438 C 285.355469 48.433594 284.597656 48.273438 283.828125 48.304688 C 283.261719 48.328125 282.699219 48.453125 282.152344 48.671875 C 281.8125 48.804688 281.503906 49.019531 281.253906 49.285156 C 281.007812 49.554688 280.820312 49.882812 280.71875 50.230469 C 280.550781 50.792969 280.628906 51.277344 280.949219 51.660156 C 281.3125 52.097656 281.699219 52.21875 282.011719 52.21875 C 282.101562 52.21875 282.183594 52.207031 282.257812 52.191406 C 282.460938 52.152344 282.628906 52.070312 282.742188 52.007812 C 282.769531 52.058594 282.796875 52.105469 282.832031 52.15625 C 283.078125 52.503906 283.480469 52.695312 284.03125 52.726562 C 284.074219 52.730469 284.121094 52.730469 284.164062 52.730469 C 284.621094 52.730469 284.96875 52.585938 285.203125 52.304688 C 285.292969 52.199219 285.359375 52.078125 285.40625 51.949219 C 285.539062 52.035156 285.792969 52.164062 286.097656 52.164062 C 286.144531 52.164062 286.191406 52.160156 286.238281 52.15625 C 286.585938 52.109375 286.894531 51.898438 287.15625 51.53125 C 287.269531 51.371094 287.34375 51.199219 287.386719 51.019531 L 308.003906 51.019531 C 308.042969 51.257812 308.140625 51.46875 308.300781 51.660156 C 308.664062 52.097656 309.046875 52.21875 309.363281 52.21875 C 309.449219 52.21875 309.535156 52.207031 309.609375 52.191406 C 309.8125 52.152344 309.980469 52.070312 310.089844 52.007812 C 310.117188 52.058594 310.148438 52.105469 310.183594 52.15625 C 310.429688 52.503906 310.832031 52.695312 311.378906 52.726562 C 311.425781 52.730469 311.46875 52.730469 311.511719 52.730469 C 311.96875 52.730469 312.320312 52.585938 312.554688 52.304688 C 312.644531 52.199219 312.710938 52.078125 312.757812 51.949219 C 312.890625 52.035156 313.140625 52.164062 313.449219 52.164062 C 313.496094 52.164062 313.542969 52.160156 313.589844 52.15625 C 313.9375 52.109375 314.242188 51.898438 314.503906 51.53125 C 314.824219 51.082031 314.855469 50.539062 314.59375 49.964844 C 314.359375 49.449219 313.945312 49.023438 313.421875 48.773438 Z M 293.65625 44.789062 C 292.503906 44.789062 291.570312 43.855469 291.570312 42.707031 C 291.570312 41.554688 292.503906 40.621094 293.65625 40.621094 C 294.804688 40.621094 295.738281 41.554688 295.738281 42.707031 C 295.738281 43.855469 294.804688 44.789062 293.65625 44.789062 Z M 300.5 46.25 C 299.972656 46.726562 299.527344 46.890625 299.160156 46.890625 C 298.847656 46.890625 298.59375 46.769531 298.398438 46.625 C 298.164062 46.449219 297.988281 46.210938 297.886719 45.941406 C 297.757812 46.199219 297.558594 46.417969 297.308594 46.570312 C 297.128906 46.683594 296.90625 46.769531 296.644531 46.769531 C 296.253906 46.769531 295.785156 46.578125 295.257812 45.996094 C 295.207031 45.941406 295.210938 45.855469 295.265625 45.804688 C 295.320312 45.757812 295.40625 45.761719 295.453125 45.816406 C 296.066406 46.488281 296.640625 46.664062 297.171875 46.34375 C 297.535156 46.121094 297.761719 45.730469 297.785156 45.292969 L 297.8125 44.699219 C 297.804688 44.695312 297.792969 44.695312 297.78125 44.691406 C 297.664062 44.675781 297.242188 44.265625 297.144531 44.125 C 297.046875 43.988281 297.25 43.953125 297.25 43.953125 C 297.527344 43.894531 297.628906 43.855469 297.976562 43.867188 C 298.3125 43.878906 298.425781 43.925781 298.699219 44.007812 C 298.699219 44.007812 298.898438 44.058594 298.789062 44.1875 C 298.683594 44.320312 298.230469 44.695312 298.109375 44.707031 C 298.101562 44.707031 298.089844 44.707031 298.082031 44.707031 L 298.050781 45.308594 C 298.03125 45.742188 298.21875 46.15625 298.5625 46.410156 C 299.054688 46.78125 299.644531 46.660156 300.320312 46.050781 C 300.375 46 300.457031 46.003906 300.507812 46.058594 C 300.558594 46.113281 300.554688 46.199219 300.5 46.25 Z M 302.730469 45.425781 C 301.578125 45.425781 300.644531 44.492188 300.644531 43.34375 C 300.644531 42.191406 301.578125 41.257812 302.730469 41.257812 C 303.878906 41.257812 304.8125 42.191406 304.8125 43.34375 C 304.8125 44.492188 303.878906 45.425781 302.730469 45.425781 Z M 302.730469 45.425781 " fill-opacity="1" fill-rule="nonzero"/></g></svg>