<svg xmlns="http://www.w3.org/2000/svg" xmlns:xlink="http://www.w3.org/1999/xlink" width="500" zoomAndPan="magnify" viewBox="0 0 375 30.000001" height="40" preserveAspectRatio="xMidYMid meet" version="1.0"><defs><clipPath id="8e39f2868e"><path d="M 6.046875 4 L 35 4 L 35 26.128906 L 6.046875 26.128906 Z M 6.046875 4 " clip-rule="nonzero"/></clipPath><clipPath id="7704418808"><path d="M 32 23 L 368.949219 23 L 368.949219 26 L 32 26 Z M 32 23 " clip-rule="nonzero"/></clipPath></defs><path fill="#662d13" d="M 11.625 12.929688 C 10.988281 11.675781 10.804688 10.09375 11.074219 8.183594 C 11.484375 6.183594 12.179688 4.554688 13.164062 3.289062 C 13.296875 3.144531 13.457031 3.191406 13.652344 3.433594 C 13.691406 3.417969 14.003906 3.957031 14.59375 5.042969 C 14.664062 5.15625 14.75 5.238281 14.855469 5.289062 L 17.257812 5.660156 C 17.601562 5.722656 18.136719 5.886719 18.875 6.152344 C 19.011719 6.171875 19.132812 6.132812 19.238281 6.039062 L 20.75 4.429688 C 20.84375 4.324219 20.945312 4.292969 21.0625 4.339844 C 21.316406 4.300781 21.464844 5.464844 21.507812 7.828125 C 21.550781 8.730469 21.464844 9.542969 21.242188 10.269531 C 20.292969 12.640625 19.0625 14.492188 17.546875 15.8125 Z M 11.625 12.929688 " fill-opacity="1" fill-rule="nonzero"/><path fill="#deceb4" d="M 15.113281 8.941406 C 15.035156 9.417969 14.585938 9.742188 14.109375 9.667969 C 13.632812 9.589844 13.308594 9.144531 13.382812 8.664062 C 13.457031 8.1875 13.90625 7.863281 14.386719 7.9375 C 14.863281 8.011719 15.1875 8.460938 15.113281 8.941406 Z M 15.113281 8.941406 " fill-opacity="0.996" fill-rule="nonzero"/><path fill="#deceb4" d="M 19.5 9.226562 C 19.421875 9.703125 18.976562 10.027344 18.496094 9.953125 C 18.019531 9.875 17.695312 9.429688 17.769531 8.949219 C 17.847656 8.472656 18.292969 8.148438 18.773438 8.222656 C 19.25 8.300781 19.574219 8.746094 19.5 9.226562 Z M 19.5 9.226562 " fill-opacity="0.996" fill-rule="nonzero"/><g clip-path="url(#8e39f2868e)"><path fill="#662d13" d="M 18.46875 12.890625 C 18.863281 14.585938 20.019531 15.695312 21.941406 16.21875 C 22.894531 16.722656 26.476562 17.171875 32.679688 17.566406 C 33.382812 17.667969 33.875 17.820312 34.152344 18.03125 C 34.667969 18.539062 34.742188 18.898438 34.378906 19.101562 C 31.828125 19.066406 30.378906 19.28125 30.03125 19.75 C 29.265625 20.378906 28.820312 21.179688 28.6875 22.148438 C 28.691406 22.613281 28.960938 22.957031 29.492188 23.183594 C 29.707031 23.394531 30.90625 23.5625 33.085938 23.683594 C 33.796875 23.941406 34.09375 24.242188 33.980469 24.59375 C 33.382812 25.511719 30.03125 26.011719 23.925781 26.09375 C 20.230469 26.054688 17.257812 25.546875 15.015625 24.578125 C 13.199219 23.777344 11.859375 22.542969 10.996094 20.867188 L 7.324219 11.171875 C 7.03125 10.347656 6.824219 9.625 6.699219 9.003906 C 6.289062 6.667969 6.582031 5.765625 7.582031 6.304688 C 7.84375 6.523438 8.074219 6.886719 8.273438 7.394531 L 9.796875 11.960938 C 10.164062 12.601562 10.496094 12.765625 10.792969 12.457031 C 10.015625 10.199219 9.453125 8.050781 9.105469 6.019531 C 8.988281 5.039062 9.164062 4.5 9.628906 4.398438 C 9.945312 4.089844 10.734375 5.9375 12 9.941406 Z M 18.46875 12.890625 " fill-opacity="1" fill-rule="nonzero"/></g><path fill="#662d13" d="M 30.070312 1.25 C 29.855469 2.28125 29.824219 3.085938 29.976562 3.664062 C 30.070312 4.007812 30.203125 4.351562 30.378906 4.691406 L 30.347656 4.632812 C 31.757812 6.902344 32.527344 8.324219 32.648438 8.910156 C 32.65625 8.941406 32.660156 8.972656 32.664062 9.003906 L 32.628906 8.851562 C 33.054688 10.089844 33.136719 11.292969 32.867188 12.460938 L 32.867188 12.472656 C 32.144531 15.429688 29.757812 18.085938 25.703125 20.449219 C 25.300781 20.683594 24.785156 20.546875 24.546875 20.140625 C 24.3125 19.738281 24.449219 19.21875 24.855469 18.984375 C 28.492188 16.867188 30.617188 14.5625 31.222656 12.070312 L 31.21875 12.082031 C 31.414062 11.230469 31.351562 10.335938 31.027344 9.402344 C 31.011719 9.351562 31 9.300781 30.992188 9.25 C 30.992188 9.253906 30.992188 9.257812 30.992188 9.257812 L 30.992188 9.261719 C 30.910156 8.871094 30.21875 7.625 28.910156 5.527344 L 28.878906 5.46875 C 28.644531 5.019531 28.464844 4.5625 28.34375 4.101562 C 28.121094 3.261719 28.144531 2.195312 28.414062 0.902344 C 28.511719 0.445312 28.957031 0.152344 29.417969 0.246094 C 29.875 0.34375 30.167969 0.792969 30.070312 1.25 Z M 30.070312 1.25 " fill-opacity="1" fill-rule="nonzero"/><g clip-path="url(#7704418808)"><path fill="#662d13" d="M 33.03125 23.949219 L 368.363281 23.953125 C 368.699219 23.953125 368.96875 24.222656 368.96875 24.558594 C 368.96875 24.890625 368.699219 25.164062 368.363281 25.164062 L 33.03125 25.164062 C 32.699219 25.164062 32.425781 24.890625 32.425781 24.554688 C 32.425781 24.222656 32.699219 23.949219 33.03125 23.949219 Z M 33.03125 23.949219 " fill-opacity="0.996" fill-rule="nonzero"/></g></svg>