<svg xmlns="http://www.w3.org/2000/svg" xmlns:xlink="http://www.w3.org/1999/xlink" width="500" zoomAndPan="magnify" viewBox="0 0 375 149.999998" height="200" preserveAspectRatio="xMidYMid meet" version="1.0"><defs><clipPath id="877a993b1a"><path d="M 0 65 L 30 65 L 30 88.40625 L 0 88.40625 Z M 0 65 " clip-rule="nonzero"/></clipPath><clipPath id="74cf6aee3b"><path d="M 19 61.40625 L 28 61.40625 L 28 83 L 19 83 Z M 19 61.40625 " clip-rule="nonzero"/></clipPath></defs><path fill="#662d13" d="M 5.761719 74.765625 C 5.105469 73.472656 4.917969 71.835938 5.195312 69.863281 C 5.617188 67.796875 6.335938 66.113281 7.351562 64.804688 C 7.488281 64.652344 7.65625 64.703125 7.859375 64.953125 C 7.898438 64.941406 8.222656 65.496094 8.832031 66.617188 C 8.902344 66.734375 8.992188 66.816406 9.101562 66.871094 L 11.585938 67.253906 C 11.9375 67.320312 12.492188 67.488281 13.253906 67.761719 C 13.398438 67.78125 13.523438 67.742188 13.628906 67.644531 L 15.191406 65.980469 C 15.285156 65.875 15.394531 65.84375 15.515625 65.890625 C 15.773438 65.851562 15.929688 67.050781 15.976562 69.496094 C 16.019531 70.429688 15.929688 71.269531 15.703125 72.015625 C 14.722656 74.46875 13.449219 76.378906 11.882812 77.746094 Z M 5.761719 74.765625 " fill-opacity="1" fill-rule="nonzero"/><path fill="#deceb4" d="M 9.367188 70.644531 C 9.289062 71.136719 8.824219 71.472656 8.332031 71.394531 C 7.835938 71.316406 7.5 70.855469 7.578125 70.359375 C 7.65625 69.867188 8.121094 69.53125 8.613281 69.609375 C 9.109375 69.6875 9.445312 70.152344 9.367188 70.644531 Z M 9.367188 70.644531 " fill-opacity="0.996" fill-rule="nonzero"/><path fill="#deceb4" d="M 13.898438 70.9375 C 13.820312 71.433594 13.359375 71.769531 12.863281 71.691406 C 12.371094 71.613281 12.035156 71.148438 12.113281 70.65625 C 12.191406 70.160156 12.65625 69.824219 13.148438 69.902344 C 13.640625 69.980469 13.976562 70.445312 13.898438 70.9375 Z M 13.898438 70.9375 " fill-opacity="0.996" fill-rule="nonzero"/><g clip-path="url(#877a993b1a)"><path fill="#662d13" d="M 12.832031 74.726562 C 13.238281 76.476562 14.4375 77.625 16.421875 78.167969 C 17.410156 78.6875 21.109375 79.148438 27.519531 79.558594 C 28.246094 79.664062 28.753906 79.820312 29.039062 80.035156 C 29.570312 80.5625 29.652344 80.933594 29.277344 81.144531 C 26.636719 81.109375 25.140625 81.332031 24.785156 81.8125 C 23.992188 82.464844 23.527344 83.292969 23.394531 84.292969 C 23.398438 84.773438 23.675781 85.128906 24.222656 85.359375 C 24.445312 85.582031 25.683594 85.753906 27.941406 85.878906 C 28.671875 86.144531 28.980469 86.457031 28.863281 86.820312 C 28.246094 87.765625 24.785156 88.285156 18.476562 88.371094 C 14.652344 88.328125 11.582031 87.804688 9.265625 86.804688 C 7.386719 85.976562 6.003906 84.699219 5.113281 82.96875 L 1.316406 72.953125 C 1.015625 72.101562 0.800781 71.351562 0.671875 70.710938 C 0.25 68.296875 0.554688 67.367188 1.582031 67.917969 C 1.855469 68.144531 2.09375 68.519531 2.296875 69.046875 L 3.875 73.765625 C 4.253906 74.429688 4.597656 74.597656 4.902344 74.277344 C 4.097656 71.945312 3.515625 69.726562 3.160156 67.628906 C 3.039062 66.613281 3.21875 66.054688 3.699219 65.949219 C 4.027344 65.628906 4.84375 67.539062 6.148438 71.675781 Z M 12.832031 74.726562 " fill-opacity="1" fill-rule="nonzero"/></g><g clip-path="url(#74cf6aee3b)"><path fill="#662d13" d="M 24.824219 62.695312 C 24.597656 63.761719 24.566406 64.59375 24.726562 65.195312 L 24.726562 65.191406 C 24.820312 65.546875 24.960938 65.902344 25.144531 66.253906 L 25.109375 66.195312 C 26.566406 68.535156 27.359375 70.007812 27.488281 70.613281 C 27.492188 70.644531 27.5 70.675781 27.503906 70.707031 L 27.464844 70.550781 C 27.90625 71.832031 27.988281 73.074219 27.714844 74.28125 L 27.710938 74.292969 C 26.96875 77.347656 24.5 80.097656 20.3125 82.535156 C 19.894531 82.777344 19.359375 82.636719 19.117188 82.21875 C 18.875 81.800781 19.015625 81.265625 19.433594 81.023438 C 23.191406 78.835938 25.386719 76.453125 26.011719 73.882812 L 26.007812 73.894531 C 26.210938 73.011719 26.144531 72.085938 25.8125 71.121094 C 25.796875 71.070312 25.78125 71.019531 25.773438 70.964844 C 25.777344 70.96875 25.777344 70.972656 25.777344 70.972656 L 25.777344 70.976562 C 25.691406 70.570312 24.972656 69.285156 23.625 67.117188 L 23.589844 67.058594 C 23.351562 66.59375 23.164062 66.121094 23.039062 65.644531 L 23.035156 65.644531 C 22.804688 64.777344 22.832031 63.675781 23.113281 62.335938 C 23.210938 61.863281 23.675781 61.5625 24.148438 61.660156 C 24.621094 61.761719 24.921875 62.222656 24.824219 62.695312 Z M 24.824219 62.695312 " fill-opacity="1" fill-rule="nonzero"/></g><path fill="#662d13" d="M 27.882812 86.15625 L 374.390625 86.15625 C 374.738281 86.15625 375.019531 86.4375 375.019531 86.78125 C 375.019531 87.128906 374.738281 87.40625 374.390625 87.40625 L 27.882812 87.40625 C 27.539062 87.40625 27.257812 87.125 27.257812 86.78125 C 27.257812 86.433594 27.539062 86.15625 27.882812 86.15625 Z M 27.882812 86.15625 " fill-opacity="0.996" fill-rule="nonzero"/></svg>